<svg xmlns="http://www.w3.org/2000/svg" width="72" height="100" viewBox="0 0 72 100" fill="none"><path fill-rule="evenodd" clip-rule="evenodd" d="M35.9125 1.43391L70.41 36.412L64.4159 42.4895L35.9125 13.589L7.40909 42.4895L1.41502 36.4119L35.9125 1.43391ZM6.70198 43.2065L0.000808498 36.4119L35.9125 -1.56975e-06L71.8242 36.412L65.123 43.2065L71.8242 50.001L65.124 56.7945L71.8242 63.588L35.9125 100L0.00080731 63.588L6.701 56.7945L0.000807904 50.001L6.70198 43.2065ZM63.7088 43.2065L35.9125 15.0229L8.1162 43.2065L14.1093 49.283L35.9125 27.1761L57.7157 49.283L63.7088 43.2065ZM58.4228 50L64.4159 43.9234L70.41 50.001L64.4169 56.0776L58.4228 50ZM57.0086 50L35.9125 28.61L14.8164 50L35.9125 71.39L57.0086 50ZM14.1093 50.717L35.9125 72.8239L57.7157 50.717L63.7098 56.7945L35.9125 84.979L8.11522 56.7945L14.1093 50.717ZM13.4022 50L7.40811 56.0776L1.41502 50.001L7.40909 43.9234L13.4022 50ZM70.41 63.588L64.4169 57.5115L35.9125 86.4129L7.40811 57.5115L1.41502 63.588L35.9125 98.5661L70.41 63.588Z" fill="#FAFAFA"></path></svg>