<svg xmlns="http://www.w3.org/2000/svg" width="101" height="100" viewBox="0 0 101 100" fill="none"><path fill-rule="evenodd" clip-rule="evenodd" d="M17.7712 67.5333C8.2165 60.9636 1.9514 49.9552 1.9514 37.4836C1.9514 17.357 18.2677 1.04121 38.3949 1.04121C50.8676 1.04121 61.8768 7.3068 68.4466 16.8621C63.2141 14.0875 57.2459 12.5159 50.9105 12.5159C30.2083 12.5159 13.4258 29.2979 13.4258 49.9995C13.4258 56.3339 14.9971 62.3014 17.7712 67.5333ZM18.8917 69.5004C8.10841 62.918 0.910156 51.0414 0.910156 37.4836C0.910157 16.782 17.6927 -2.54335e-06 38.3949 0C51.9538 0 63.8313 7.19877 70.4137 17.9827C75.5162 21.0974 79.816 25.3975 82.9303 30.5002C93.7131 37.0827 100.911 48.959 100.911 62.5164C100.911 83.218 84.1284 100 63.4262 100C49.8666 100 37.9885 92.8005 31.4064 82.0157C26.3048 78.9014 22.0057 74.6021 18.8917 69.5004ZM69.6554 18.7409C64.1786 15.4497 57.7656 13.5571 50.9105 13.5571C30.7833 13.5571 14.467 29.8729 14.467 49.9995C14.467 56.8536 16.3593 63.2659 19.65 68.7422C22.0057 70.1578 24.5345 71.3146 27.1972 72.1734C26.378 69.0924 25.9414 65.8554 25.9414 62.5164C25.9414 41.8148 42.7239 25.0328 63.4262 25.0328C66.7664 25.0328 70.0047 25.4697 73.0868 26.2894C72.2281 23.6263 71.0712 21.097 69.6554 18.7409ZM74.284 26.6294C73.5801 24.2989 72.6554 22.0643 71.5342 19.9498C75.2254 22.4878 78.4256 25.6882 80.9634 29.3796C78.8489 28.2583 76.6144 27.3335 74.284 26.6294ZM73.4449 27.4684C70.2618 26.5602 66.9008 26.074 63.4262 26.074C43.299 26.074 26.9827 42.3898 26.9826 62.5164C26.9826 65.9897 27.4686 69.3495 28.3762 72.5316C31.5593 73.4398 34.9203 73.926 38.3949 73.926C58.5221 73.926 74.8384 57.6102 74.8384 37.4836C74.8384 34.0103 74.3525 30.6505 73.4449 27.4684ZM28.7343 73.7106C31.8164 74.5303 35.0546 74.9672 38.3949 74.9672C59.0972 74.9672 75.8797 58.1852 75.8797 37.4836C75.8797 34.1446 75.4431 30.9076 74.6239 27.8266C77.2869 28.6855 79.8161 29.8426 82.172 31.2584C85.4621 36.7344 87.354 43.146 87.354 49.9995C87.354 70.1261 71.0377 86.4419 50.9105 86.4419C44.0551 86.4419 37.6418 84.5491 32.1647 81.2575C30.7494 78.9019 29.5928 76.3732 28.7343 73.7106ZM27.5371 73.3706C28.2408 75.7005 29.1652 77.9346 30.286 80.0486C26.5957 77.5111 23.3962 74.3114 20.8588 70.621C22.9729 71.742 25.2071 72.6667 27.5371 73.3706ZM99.8697 62.5164C99.8697 50.0451 93.6049 39.037 84.0507 32.4672C86.8243 37.6988 88.3953 43.6657 88.3953 49.9995C88.3953 70.7011 71.6128 87.4831 50.9105 87.4831C44.5748 87.4831 38.6061 85.9113 33.3733 83.1363C39.943 92.6925 50.9528 98.9588 63.4262 98.9588C83.5534 98.9588 99.8697 82.643 99.8697 62.5164Z" fill="#FAFAFA"></path></svg>