<svg xmlns="http://www.w3.org/2000/svg" width="98" height="100" viewBox="0 0 98 100" fill="none"><path fill-rule="evenodd" clip-rule="evenodd" d="M60.903 78.5142C55.6116 80.7966 49.7405 82.0669 43.5591 82.0669C41.6325 82.0669 39.7361 81.9435 37.8779 81.7045L60.903 44.062L60.903 78.5142ZM60.903 79.8999C55.5884 82.1089 49.7233 83.3337 43.5591 83.3337C41.3834 83.3337 39.245 83.1811 37.1549 82.8865L27.4759 98.7101H60.903V79.8999ZM36.4613 81.4988L60.7792 41.7428L1.3244 41.7428C1.36279 61.7074 16.5404 78.2742 36.4613 81.4988ZM1.32432 51.9035C5.46953 67.6008 18.9277 79.7524 35.7476 82.6655L25.9194 98.7332H1.32433L1.32432 51.9035ZM0.0174504 40.476H0L2.05391e-06 41.6668V100H62.2273V99.9709H98.0001L77.9673 67.2205C83.7028 60.1642 87.1182 51.2971 87.1182 41.6668C87.1182 18.6549 67.6161 0 43.5591 0C19.9184 0 0.676438 18.0147 0.0174504 40.476ZM1.34232 40.476C2.00088 18.7145 20.6499 1.26679 43.5591 1.26679C66.8847 1.26679 85.7939 19.3545 85.7939 41.6668C85.7939 50.8215 82.6106 59.265 77.2452 66.0398L62.2273 41.4879V40.476H61.6083L61.5812 40.4316L61.5541 40.476L1.34232 40.476ZM76.3617 67.1171L62.2273 44.0096V77.9161C67.7195 75.3231 72.5374 71.6216 76.3617 67.1171ZM77.0746 68.2826C73.0452 72.9202 67.9837 76.7082 62.2273 79.3239V98.7101H95.6865L77.0746 68.2826Z" fill="#FAFAFA"></path></svg>