<svg xmlns="http://www.w3.org/2000/svg" width="112" height="101" viewBox="0 0 112 101" fill="none"><path fill-rule="evenodd" clip-rule="evenodd" d="M56.2738 30.6686C56.2738 46.4956 43.9136 59.3258 28.6664 59.3258C26.3077 59.3258 24.018 59.0188 21.8325 58.441L21.8325 20.2685L54.3996 20.2685C55.6097 23.4926 56.2738 27.0001 56.2738 30.6686ZM53.9612 19.1692L20.7734 19.1692L20.7734 58.1375C9.37233 54.6128 1.05907 43.6485 1.05907 30.6686C1.05907 14.8417 13.4193 2.01145 28.6664 2.01145C39.9736 2.01145 49.6931 9.06755 53.9612 19.1692ZM55.1139 19.1692C50.7811 8.44489 40.5713 0.912109 28.6664 0.912109C12.8344 0.912109 0 14.2346 0 30.6686C0 44.261 8.77965 55.7248 20.7734 59.283V78.6822H57.4174L45.0048 100.999H111.207L78.1063 41.4866V19.1692H55.1139ZM55.5333 20.2685C56.6969 23.5059 57.3329 27.0102 57.3329 30.6686C57.3329 47.1027 44.4985 60.4252 28.6664 60.4252C26.3113 60.4252 24.0226 60.1304 21.8325 59.5744L21.8325 77.5829L58.0288 77.5829L77.0473 43.3894V20.2685H55.5333ZM109.373 99.8996L78.1063 43.6853V78.6822H58.6403L46.8392 99.8996H109.373ZM77.0473 77.5829L77.0473 45.5881L59.2517 77.5829H77.0473Z" fill="#FAFAFA"></path></svg>